<?xml version="1.0"?><svg width="744.09448819" height="1052.3622047" xmlns="http://www.w3.org/2000/svg">
 <title>green splash ink</title>
 <metadata id="metadata7">image/svg+xmlink splash with dropsSergio Luiz Araujo Silvadropsplashink</metadata>
 <g>
  <title>Layer 1</title>
  <g id="layer1">
   <path fill="#ff0000" id="path2854" d="m413.155731,350.017212c-23.101257,19.771088 61.729675,47.739838 33.52063,64.939392c-23.275055,14.191162 -26.89621,-62.627441 -52.806671,-44.706482c-12.801392,8.854034 17.065277,30.802155 2.778076,37.167877c-15.687042,6.98941 -12.546234,-31.559631 -29.567291,-28.057526c-28.170227,5.79599 26.14389,82.203735 -6.41037,85.947021c-31.511047,3.623291 10.35318,-83.045013 -15.216736,-83.642426c-15.172119,-0.354492 -6.839722,36.231415 -22.447083,33.224609c-17.136536,-3.301392 10.589142,-32.460083 -4.63559,-40.622559c-46.913055,-25.151672 -34.681458,79.347412 -66.136749,62.894928c-37.805237,-19.773773 59.563873,-47.806335 40.811157,-84.733063c-12.774139,-25.153961 -25.832397,39.967804 -45.105331,18.569855c-16.050461,-17.820129 51.351578,-16.766632 24.168991,-42.413086c-11.338257,-10.697479 -28.246887,26.76886 -33.593063,11.932739c-5.86998,-16.289764 32.73967,-12.399841 32.986832,-29.872284c0.586884,-41.493195 -85.174149,16.421478 -87.154175,-10.65976c-2.371582,-32.43631 82.771576,12.92749 87.293945,-22.285126c1.969696,-15.336609 -83.168671,-7.191223 -78.799698,-21.851639c4.796997,-16.096817 73.195511,18.510605 78.994919,2.315903c5.281891,-14.749557 -32.76828,-21.1875 -24.58902,-34.469376c8.980682,-14.583206 26.295929,18.056503 37.522186,5.025314c10.224487,-11.868332 -21.881592,-23.248917 -9.718872,-33.066422c13.354431,-10.779388 23.872192,31.886581 37.839417,22.238983c29.459412,-20.348495 -49.013092,-72.086746 -21.182953,-83.798813c30.715271,-12.926247 10.281647,75.009628 47.298798,68.922867c15.133392,-2.488388 -9.306152,-35.255066 6.229736,-36.44191c17.058594,-1.303146 -4.525574,34.148651 12.859131,35.860184c15.833405,1.558823 7.945404,-34.685867 22.914978,-30.850296c16.43631,4.21138 -11.026062,38.787949 4.841095,44.01384c14.451294,4.759567 21.862274,-39.509827 35.760651,-31.902878c15.260101,8.35228 -23.049561,36.44606 -9.774292,47.319153c12.090668,9.902847 39.98941,-58.632248 58.934448,-36.56192c19.676025,22.92189 -60.819427,32.117142 -39.332245,48.569992c12.305023,9.422028 28.068634,-13.726517 33.593048,0.558701c6.065704,15.684845 -34.122345,11.814606 -30.449097,28.149384c7.851074,34.913361 58.942108,-25.629196 65.029938,0.344574c9.886597,42.181305 -39.67807,2.854675 -54.542603,27.597351c-13.766266,22.914581 68.842987,18.915497 65.024567,34.113068c-6.888824,27.417938 -65.21048,-44.169128 -75.693695,-4.671875c-22.828918,19.903168 51.290161,35.248383 40.225861,52.143341c-18.180389,9.225159 -41.061737,-44.07666 -61.47287,-31.241638z"/>
   <path fill="#ff0000" id="path2859" d="m184.300598,251.754684a7.35401,7.35401 0 1 1 -14.708008,0a7.35401,7.35401 0 1 1 14.708008,0z"/>
   <path fill="#ff0000" d="m485.079498,239.988281a7.35401,7.35401 0 1 1 -14.708008,0a7.35401,7.35401 0 1 1 14.708008,0z" id="path2857"/>
   <path fill="#ff0000" id="path2861" d="m389.482758,165.759552c0,0 5.719879,-61.354675 23.049164,-54.438721c16.919495,6.752411 -23.049164,54.438721 -23.049164,54.438721z"/>
   <path fill="#ff0000" d="m482.078674,302.108246c0,0 60.744446,-10.354767 58.549316,8.173981c-2.14325,18.090668 -58.549316,-8.173981 -58.549316,-8.173981z" id="path2864"/>
   <path fill="#ff0000" id="path2866" d="m225.976776,355.055206c0,0 -47.428879,39.339691 -54.792191,22.19574c-7.18924,-16.738556 54.792191,-22.19574 54.792191,-22.19574z"/>
  </g>
 </g>
</svg>